Coordinates
version=1
nRows=38
nColumns=38
inDegrees=no

Units are S.I. units (second, meters, Newtons, ...)
If the header above contains a line with 'inDegrees', this indicates whether rotational values are in degrees (yes) or radians (no).

endheader
time	pelvis_tilt	pelvis_list	pelvis_rotation	pelvis_tx	pelvis_ty	pelvis_tz	hip_flexion_r	hip_adduction_r	hip_rotation_r	knee_angle_r	ankle_angle_r	subtalar_angle_r	mtp_angle_r	hip_flexion_l	hip_adduction_l	hip_rotation_l	knee_angle_l	ankle_angle_l	subtalar_angle_l	mtp_angle_l	lumbar_extension	lumbar_bending	lumbar_rotation	arm_flex_r	arm_add_r	arm_rot_r	elbow_flex_r	pro_sup_r	wrist_flex_r	wrist_dev_r	arm_flex_l	arm_add_l	arm_rot_l	elbow_flex_l	pro_sup_l	wrist_flex_l	wrist_dev_l
30	-0.280218	1.36986	1.76071	0.690882	0.123386	0.961175	0.61044	-0.363224	-0.527131	0.832779	0.201676	0	0	0.499523	-0.181716	-0.540049	0.708107	0.285434	0	0	-0.482266	-0.0387789	0.105692	0.643156	-0.467397	0.0247538	1.197	0.862207	0	0	0.621589	-0.380421	0.043451	1.18941	0.926094	0	0
30.01	-0.284343	1.37552	1.7631	0.69073	0.124802	0.965191	0.592669	-0.354325	-0.526075	0.809383	0.194445	0	0	0.481189	-0.173693	-0.538112	0.681746	0.274932	0	0	-0.474043	-0.0382308	0.107262	0.629425	-0.468622	0.0244604	1.19943	0.860031	0	0	0.604691	-0.37874	0.038827	1.19384	0.92636	0	0
30.02	-0.287643	1.38145	1.76494	0.690558	0.126232	0.969181	0.574378	-0.345498	-0.525568	0.785846	0.186992	0	0	0.462018	-0.165815	-0.536628	0.654196	0.26412	0	0	-0.46628	-0.0372051	0.108642	0.615848	-0.469418	0.0237332	1.20181	0.859119	0	0	0.588351	-0.37696	0.0342303	1.19768	0.927092	0	0
30.03	-0.290758	1.38724	1.76751	0.690264	0.127677	0.973069	0.555635	-0.337282	-0.526139	0.76169	0.179805	0	0	0.442577	-0.157124	-0.534282	0.625115	0.252771	0	0	-0.458489	-0.0356256	0.10935	0.602093	-0.469782	0.0216806	1.20461	0.858458	0	0	0.572131	-0.375118	0.0297135	1.20061	0.928236	0	0
30.04	-0.292833	1.39265	1.76967	0.689926	0.129087	0.97679	0.536936	-0.329112	-0.527169	0.736979	0.172509	0	0	0.423472	-0.147879	-0.530508	0.595012	0.241214	0	0	-0.450367	-0.0338119	0.109646	0.588265	-0.469873	0.0189288	1.20765	0.85734	0	0	0.556033	-0.373615	0.0259967	1.20374	0.928683	0	0
30.05	-0.293381	1.39775	1.77076	0.689615	0.130447	0.980327	0.518301	-0.320621	-0.528314	0.711593	0.164684	0	0	0.404765	-0.138739	-0.526085	0.564507	0.229223	0	0	-0.441842	-0.0318439	0.109541	0.574466	-0.469951	0.016591	1.2106	0.855702	0	0	0.540102	-0.372563	0.022665	1.20706	0.928477	0	0
30.06	-0.291996	1.40267	1.77033	0.689353	0.131773	0.983713	0.499579	-0.311678	-0.5296	0.685454	0.156792	0	0	0.386555	-0.130178	-0.521427	0.534387	0.216963	0	0	-0.433201	-0.0296898	0.108974	0.560725	-0.470276	0.0151811	1.21353	0.853997	0	0	0.524384	-0.371838	0.018929	1.21077	0.928402	0	0
30.07	-0.288552	1.40759	1.76879	0.689069	0.133087	0.986996	0.480478	-0.302701	-0.531668	0.658891	0.149056	0	0	0.368918	-0.12201	-0.51544	0.505101	0.204805	0	0	-0.424895	-0.0271503	0.10751	0.546955	-0.470656	0.0140424	1.21655	0.852467	0	0	0.509408	-0.371473	0.0155008	1.21471	0.92857	0	0
30.08	-0.284212	1.41267	1.76712	0.688749	0.134393	0.990191	0.460918	-0.294125	-0.535046	0.632221	0.141173	0	0	0.351405	-0.113731	-0.50756	0.475888	0.192022	0	0	-0.417213	-0.0243995	0.105498	0.533153	-0.470996	0.0124373	1.21988	0.851254	0	0	0.495646	-0.371208	0.0127911	1.21824	0.92891	0	0
30.09	-0.285862	1.41774	1.77191	0.68839	0.135608	0.993368	0.44135	-0.286984	-0.538863	0.605807	0.132956	0	0	0.331889	-0.102235	-0.494314	0.440624	0.175262	0	0	-0.410621	-0.0228072	0.103186	0.519473	-0.47124	0.0097838	1.22374	0.850798	0	0	0.48372	-0.370935	0.0108326	1.22129	0.929872	0	0
30.1	-0.286266	1.42259	1.77497	0.688105	0.136727	0.996345	0.422456	-0.279485	-0.54229	0.579671	0.124892	0	0	0.312151	-0.0910016	-0.479676	0.404246	0.157737	0	0	-0.404201	-0.0214938	0.102076	0.505533	-0.471918	0.00621641	1.22845	0.851172	0	0	0.472911	-0.370438	0.00979836	1.22428	0.931444	0	0
30.11	-0.280919	1.42702	1.77161	0.687926	0.137768	0.999042	0.404556	-0.270999	-0.545426	0.553843	0.117195	0	0	0.29363	-0.0819452	-0.466565	0.370201	0.140949	0	0	-0.397507	-0.0199349	0.102505	0.491142	-0.473066	0.00186927	1.2337	0.851833	0	0	0.462795	-0.369874	0.00987509	1.22756	0.933305	0	0
30.12	-0.272691	1.43148	1.76502	0.687819	0.138853	1.00155	0.386576	-0.262181	-0.548985	0.527817	0.109436	0	0	0.274703	-0.0737856	-0.453657	0.335913	0.124162	0	0	-0.390431	-0.0183233	0.103952	0.476082	-0.47444	-0.00294339	1.23858	0.852405	0	0	0.452859	-0.369249	0.0106477	1.23055	0.935775	0	0
30.13	-0.262509	1.43556	1.75598	0.687775	0.139877	1.00386	0.369279	-0.253266	-0.552575	0.501918	0.101698	0	0	0.255749	-0.0663595	-0.441265	0.301291	0.108085	0	0	-0.383127	-0.0169163	0.106007	0.461368	-0.476047	-0.00734924	1.24271	0.852476	0	0	0.443254	-0.368631	0.0119793	1.23383	0.936876	0	0
30.14	-0.249611	1.43874	1.74365	0.687781	0.140804	1.00591	0.353481	-0.244199	-0.555613	0.47623	0.0938895	0	0	0.237079	-0.0593808	-0.428633	0.265506	0.0912573	0	0	-0.374875	-0.0154841	0.108394	0.447025	-0.477505	-0.0114228	1.24619	0.853239	0	0	0.433626	-0.368104	0.0133509	1.23741	0.936829	0	0
30.15	-0.231513	1.44078	1.72661	0.687728	0.141574	1.0077	0.339163	-0.234958	-0.559081	0.45064	0.0859215	0	0	0.218792	-0.0523881	-0.411904	0.227063	0.0718311	0	0	-0.365715	-0.0131986	0.110372	0.432939	-0.479267	-0.0150692	1.24991	0.852868	0	0	0.424475	-0.367745	0.0149843	1.24066	0.937562	0	0
30.16	-0.216696	1.44221	1.71268	0.687647	0.142327	1.00932	0.326081	-0.226879	-0.562993	0.426738	0.0783506	0	0	0.197868	-0.0434827	-0.38873	0.181446	0.0477956	0	0	-0.356106	-0.0113067	0.112347	0.419076	-0.480993	-0.0188098	1.25327	0.852469	0	0	0.416157	-0.367508	0.0172894	1.24311	0.938975	0	0
30.17	-0.190739	1.44324	1.68834	0.687577	0.143005	1.01069	0.313592	-0.217465	-0.567425	0.403079	0.070723	0	0	0.181077	-0.0390955	-0.372482	0.145213	0.0280944	0	0	-0.346572	-0.00756757	0.114267	0.405847	-0.483339	-0.0222683	1.25691	0.852108	0	0	0.408711	-0.367099	0.0201696	1.2454	0.940832	0	0
30.18	-0.163539	1.44417	1.66355	0.687456	0.1436	1.01191	0.301138	-0.208055	-0.572014	0.379439	0.0630003	0	0	0.16453	-0.0353048	-0.355595	0.109489	0.00781514	0	0	-0.337968	-0.00336159	0.115613	0.393455	-0.485699	-0.0260045	1.26068	0.852265	0	0	0.402295	-0.367434	0.0257046	1.24837	0.922699	0	0
30.19	-0.135552	1.44347	1.63783	0.687365	0.144004	1.01279	0.291665	-0.199118	-0.576444	0.358331	0.0566229	0	0	0.151963	-0.0331096	-0.34467	0.0795178	-0.00795558	0	0	-0.328313	0.000952798	0.116673	0.38192	-0.487594	-0.0296028	1.26415	0.85278	0	0	0.395539	-0.366593	0.0268016	1.25038	0.932241	0	0
30.2	-0.105811	1.4432	1.6112	0.687212	0.144415	1.01356	0.281322	-0.189911	-0.581025	0.336724	0.049555	0	0	0.137725	-0.030973	-0.330766	0.0469629	-0.0261873	0	0	-0.319607	0.00604626	0.116684	0.371091	-0.489427	-0.033079	1.26778	0.852996	0	0	0.38862	-0.365657	0.0273067	1.25251	0.93965	0	0
30.21	-0.0742525	1.44247	1.58313	0.687053	0.144784	1.01413	0.271643	-0.180598	-0.585363	0.315503	0.0426474	0	0	0.123842	-0.0294634	-0.316645	0.0144406	-0.044777	0	0	-0.310795	0.0116401	0.115942	0.360704	-0.491057	-0.0361089	1.27138	0.852455	0	0	0.38129	-0.364343	0.0267164	1.25518	0.944871	0	0
30.22	-0.0408263	1.44115	1.55364	0.686903	0.145029	1.01449	0.26304	-0.171179	-0.589215	0.29512	0.0359522	0	0	0.112441	-0.0291838	-0.306185	0	-0.0595138	0	0	-0.30204	0.0177329	0.114515	0.350966	-0.492841	-0.0377966	1.2749	0.851889	0	0	0.373994	-0.362904	0.025491	1.25842	0.948524	0	0
30.23	-0.00735311	1.44174	1.52895	0.687076	0.144674	1.01506	0.251949	-0.160187	-0.588915	0.27333	0.0257475	0	0	0.115236	-0.0359223	-0.306528	0	-0.0630834	0	0	-0.296012	0.0237429	0.109954	0.341599	-0.494036	-0.0390198	1.27788	0.850093	0	0	0.368238	-0.361203	0.0238707	1.26131	0.955691	0	0
30.24	0.017906	1.44064	1.50859	0.686989	0.14454	1.01527	0.244829	-0.15277	-0.591178	0.256736	0.020077	0	0	0.114713	-0.038539	-0.304464	0	-0.0681536	0	0	-0.288416	0.0288875	0.107272	0.333735	-0.494493	-0.0410444	1.28025	0.850727	0	0	0.362064	-0.36019	0.0229621	1.2641	0.955012	0	0
30.25	0.0404697	1.43987	1.49039	0.686832	0.144435	1.01541	0.238346	-0.145963	-0.591631	0.241843	0.0146013	0	0	0.113879	-0.0409665	-0.302726	0	-0.0723195	0	0	-0.281689	0.0337359	0.1047	0.327216	-0.494851	-0.0425405	1.28213	0.851387	0	0	0.356343	-0.359048	0.0211806	1.26646	0.956259	0	0
30.26	0.0566146	1.43958	1.47761	0.686576	0.144457	1.01547	0.233048	-0.140965	-0.591847	0.230552	0.0104242	0	0	0.112362	-0.0425751	-0.300378	0	-0.0762845	0	0	-0.275391	0.037863	0.102448	0.321649	-0.495514	-0.0430229	1.28356	0.852201	0	0	0.35034	-0.357992	0.0192532	1.26843	0.956828	0	0
30.27	0.0689771	1.43906	1.46882	0.686418	0.144221	1.01547	0.229962	-0.137931	-0.592495	0.223789	0.0078752	0	0	0.111639	-0.0435679	-0.299201	0	-0.0783265	0	0	-0.269813	0.0414135	0.0994707	0.317295	-0.496326	-0.0424506	1.28444	0.852269	0	0	0.345414	-0.357431	0.0177645	1.27039	0.956932	0	0
30.28	0.0763199	1.4388	1.46482	0.686211	0.143956	1.01544	0.228288	-0.136722	-0.593364	0.22072	0.00669017	0	0	0.111066	-0.0439496	-0.298232	0	-0.0793341	0	0	-0.264889	0.0442461	0.0960608	0.313862	-0.496769	-0.0414797	1.28476	0.851588	0	0	0.340955	-0.357123	0.0163284	1.27209	0.956325	0	0
30.29	0.0797694	1.43883	1.46452	0.685979	0.143692	1.01539	0.227542	-0.136883	-0.59464	0.220329	0.00651811	0	0	0.110892	-0.0439748	-0.297071	0	-0.0800702	0	0	-0.260659	0.0464068	0.0923811	0.311328	-0.496735	-0.0404146	1.28451	0.850968	0	0	0.33706	-0.356937	0.0148208	1.2733	0.955178	0	0
30.3	0.0801537	1.43943	1.46696	0.685776	0.14345	1.01537	0.22699	-0.137995	-0.596266	0.221629	0.00690933	0	0	0.110839	-0.0437388	-0.295481	0	-0.0808924	0	0	-0.257582	0.0478268	0.0886352	0.309976	-0.496083	-0.0393427	1.2834	0.851678	0	0	0.333941	-0.356959	0.0132548	1.27399	0.9537	0	0
30.31	0.0788027	1.44112	1.47042	0.685701	0.143275	1.01548	0.225517	-0.139334	-0.597855	0.223183	0.00732305	0	0	0.109935	-0.04344	-0.293434	0	-0.0815102	0	0	-0.25629	0.0484627	0.0853685	0.309785	-0.494851	-0.0381653	1.28136	0.853697	0	0	0.33156	-0.357268	0.0116751	1.27432	0.952281	0	0
30.32	0.0768287	1.44408	1.47362	0.685779	0.143177	1.01576	0.22254	-0.140397	-0.599066	0.224076	0.00752604	0	0	0.107691	-0.0431546	-0.291509	0	-0.0818147	0	0	-0.256953	0.0484153	0.0828725	0.310698	-0.493691	-0.0361352	1.27863	0.855637	0	0	0.329679	-0.35773	0.010045	1.27458	0.950769	0	0
30.33	0.0760643	1.44811	1.47481	0.685998	0.143146	1.01617	0.217934	-0.140706	-0.599745	0.223609	0.0073354	0	0	0.104138	-0.0430363	-0.290367	0	-0.0817253	0	0	-0.25913	0.0480242	0.0812639	0.312073	-0.492508	-0.0340162	1.27561	0.856701	0	0	0.328099	-0.358166	0.00859317	1.27477	0.949488	0	0
30.34	0.0790389	1.45266	1.4715	0.686338	0.143148	1.01663	0.212113	-0.139773	-0.59968	0.221326	0.00654736	0	0	0.0996475	-0.0433852	-0.289945	0	-0.0814215	0	0	-0.261909	0.0478036	0.08072	0.313478	-0.4916	-0.0316964	1.27242	0.856798	0	0	0.326634	-0.35845	0.0076554	1.27464	0.949116	0	0
30.35	0.0857723	1.4571	1.46382	0.686756	0.143154	1.01704	0.205953	-0.137791	-0.599036	0.217763	0.00542749	0	0	0.0948734	-0.0441892	-0.290257	0	-0.0811985	0	0	-0.264266	0.0479382	0.0812159	0.314458	-0.491378	-0.0283561	1.26911	0.858257	0	0	0.325173	-0.358554	0.00734029	1.27396	0.949944	0	0
30.36	0.0937906	1.46105	1.45437	0.687221	0.143109	1.01737	0.200036	-0.135229	-0.597507	0.213152	0.00397508	0	0	0.0902781	-0.0451527	-0.291026	0	-0.0813543	0	0	-0.265802	0.0481406	0.0826841	0.314868	-0.491343	-0.025559	1.2659	0.861054	0	0	0.323903	-0.358309	0.00735808	1.27282	0.951819	0	0
30.37	0.100794	1.46425	1.44564	0.687686	0.142995	1.01763	0.194959	-0.132591	-0.595155	0.208219	0.00247654	0	0	0.0862743	-0.0460097	-0.291991	0	-0.0818151	0	0	-0.266394	0.0482345	0.0849091	0.314796	-0.491339	-0.023778	1.26265	0.864463	0	0	0.323066	-0.357544	0.00746148	1.27123	0.953764	0	0
